<svg width="147" height="44" viewBox="0 0 147 44" fill="none" xmlns="http://www.w3.org/2000/svg">
<rect width="147" height="44" rx="8" fill="#EAEBEE"/>
<path d="M54.9202 17.13L51.4902 27H53.6602L54.3882 24.606H57.8742L58.6022 27H60.7722L57.3422 17.13H54.9202ZM54.8642 23.066L56.0682 19.104H56.1942L57.3982 23.066H54.8642ZM64.2501 19.468H62.2481V29.492H64.2501V25.796H64.3761C64.7541 26.622 65.5941 27.112 66.6301 27.112C68.5341 27.112 69.6821 25.656 69.6821 23.234V23.22C69.6821 20.826 68.5061 19.356 66.6301 19.356C65.5661 19.356 64.7681 19.832 64.3761 20.63H64.2501V19.468ZM64.2221 23.234V23.22C64.2221 21.848 64.8941 21.008 65.9441 21.008C67.0081 21.008 67.6521 21.848 67.6521 23.22V23.234C67.6521 24.62 66.9941 25.46 65.9441 25.46C64.8941 25.46 64.2221 24.62 64.2221 23.234ZM73.3146 19.468H71.3126V29.492H73.3146V25.796H73.4406C73.8186 26.622 74.6586 27.112 75.6946 27.112C77.5986 27.112 78.7466 25.656 78.7466 23.234V23.22C78.7466 20.826 77.5706 19.356 75.6946 19.356C74.6306 19.356 73.8326 19.832 73.4406 20.63H73.3146V19.468ZM73.2866 23.234V23.22C73.2866 21.848 73.9586 21.008 75.0086 21.008C76.0726 21.008 76.7166 21.848 76.7166 23.22V23.234C76.7166 24.62 76.0586 25.46 75.0086 25.46C73.9586 25.46 73.2866 24.62 73.2866 23.234ZM85.8047 24.34V24.27H83.8167V24.368C83.9427 26.118 85.4267 27.252 87.7787 27.252C90.2427 27.252 91.7687 26.02 91.7687 24.06C91.7687 22.52 90.8587 21.68 88.7727 21.246L87.7227 21.036C86.5607 20.798 86.0847 20.42 86.0847 19.776V19.762C86.0847 19.034 86.7567 18.558 87.7787 18.558C88.8147 18.558 89.5007 19.048 89.6127 19.748L89.6267 19.832H91.5727L91.5587 19.748C91.4327 18.096 90.0887 16.878 87.7787 16.878C85.5947 16.878 84.0127 18.096 84.0127 19.93C84.0127 21.428 84.8947 22.38 86.9527 22.8L87.9887 23.01C89.2207 23.262 89.6967 23.626 89.6967 24.284C89.6967 25.04 88.9407 25.572 87.8347 25.572C86.6867 25.572 85.8887 25.068 85.8047 24.34ZM92.9 19.468V20.98H94.062V24.97C94.062 26.426 94.804 27.028 96.624 27.028C97.016 27.028 97.38 26.986 97.632 26.944V25.46C97.436 25.474 97.296 25.488 97.044 25.488C96.358 25.488 96.078 25.194 96.078 24.508V20.98H97.632V19.468H96.078V17.676H94.062V19.468H92.9ZM98.9212 23.22V23.234C98.9212 25.684 100.321 27.154 102.631 27.154C104.955 27.154 106.341 25.698 106.341 23.234V23.22C106.341 20.798 104.927 19.314 102.631 19.314C100.335 19.314 98.9212 20.798 98.9212 23.22ZM100.965 23.234V23.22C100.965 21.75 101.567 20.868 102.631 20.868C103.681 20.868 104.297 21.75 104.297 23.22V23.234C104.297 24.718 103.695 25.586 102.631 25.586C101.567 25.586 100.965 24.718 100.965 23.234ZM109.969 19.468H107.967V27H109.969V22.786C109.969 21.722 110.683 21.078 111.817 21.078C112.125 21.078 112.433 21.12 112.741 21.19V19.44C112.545 19.384 112.251 19.356 111.985 19.356C111.019 19.356 110.333 19.832 110.095 20.644H109.969V19.468ZM117.369 27.154C119.567 27.154 120.533 25.88 120.771 24.942L120.785 24.872H118.923L118.909 24.914C118.769 25.208 118.279 25.67 117.411 25.67C116.347 25.67 115.689 24.942 115.661 23.71H120.841V23.094C120.841 20.812 119.483 19.314 117.285 19.314C115.087 19.314 113.687 20.84 113.687 23.234V23.248C113.687 25.656 115.073 27.154 117.369 27.154ZM115.689 22.464C115.801 21.4 116.445 20.812 117.313 20.812C118.181 20.812 118.811 21.372 118.923 22.464H115.689Z" fill="#212124"/>
<path fill-rule="evenodd" clip-rule="evenodd" d="M39.8838 16.2426C42.0624 16.2426 43.4555 18.3729 43.4555 18.3729C43.4555 18.3729 41.3303 19.5383 41.3303 22.0694C41.3303 25.0734 44 25.9473 44 25.9473C44 25.9473 41.8928 31 39.5268 31C38.1963 31 38.1074 30.2265 36.3393 30.2265C34.8038 30.2265 34.286 31 33.1164 31C30.8839 31 28 26.0748 28 22.0694C28 17.9088 30.9198 16.2426 32.7501 16.2426C34.3574 16.2426 35.0268 17.1985 36.3213 17.1985C37.4108 17.1985 38.2682 16.2426 39.8838 16.2426ZM39.5093 12C39.8304 14.0393 38.0001 16.5614 35.8127 16.4794C35.4912 13.8846 37.8485 12.1369 39.5093 12Z" fill="#212124"/>
</svg>
