<svg width="147" height="44" viewBox="0 0 147 44" fill="none" xmlns="http://www.w3.org/2000/svg">
<g clip-path="url(#clip0_555_30)">
<path d="M139 0H8C3.58172 0 0 3.58172 0 8V36C0 40.4183 3.58172 44 8 44H139C143.418 44 147 40.4183 147 36V8C147 3.58172 143.418 0 139 0Z" fill="#EAEBEE"/>
<path d="M44.7559 22.044V22.058C44.7559 25.278 46.5619 27.252 49.4879 27.252C52.1899 27.252 53.8699 25.614 53.8699 22.996V21.736H49.7259V23.248H51.8539V23.43C51.8119 24.676 50.8739 25.502 49.5299 25.502C47.8919 25.502 46.8699 24.186 46.8699 22.044V22.03C46.8699 19.93 47.8499 18.628 49.4459 18.628C50.5939 18.628 51.4339 19.216 51.7139 20.196L51.7279 20.266H53.7859L53.7719 20.196C53.4779 18.222 51.7699 16.878 49.4459 16.878C46.5759 16.878 44.7559 18.88 44.7559 22.044ZM55.2666 23.22V23.234C55.2666 25.684 56.6666 27.154 58.9766 27.154C61.3006 27.154 62.6866 25.698 62.6866 23.234V23.22C62.6866 20.798 61.2726 19.314 58.9766 19.314C56.6806 19.314 55.2666 20.798 55.2666 23.22ZM57.3106 23.234V23.22C57.3106 21.75 57.9126 20.868 58.9766 20.868C60.0266 20.868 60.6426 21.75 60.6426 23.22V23.234C60.6426 24.718 60.0406 25.586 58.9766 25.586C57.9126 25.586 57.3106 24.718 57.3106 23.234ZM63.9483 23.22V23.234C63.9483 25.684 65.3483 27.154 67.6583 27.154C69.9823 27.154 71.3683 25.698 71.3683 23.234V23.22C71.3683 20.798 69.9543 19.314 67.6583 19.314C65.3623 19.314 63.9483 20.798 63.9483 23.22ZM65.9923 23.234V23.22C65.9923 21.75 66.5943 20.868 67.6583 20.868C68.7083 20.868 69.3243 21.75 69.3243 23.22V23.234C69.3243 24.718 68.7223 25.586 67.6583 25.586C66.5943 25.586 65.9923 24.718 65.9923 23.234ZM72.6159 23.052V23.066C72.6159 25.208 73.7779 26.678 75.6679 26.678C76.7179 26.678 77.5159 26.244 77.9219 25.446H78.0479V26.846C78.0479 27.728 77.4319 28.218 76.3679 28.218C75.4719 28.218 74.9539 27.924 74.8419 27.49V27.462H72.8679V27.49C73.0219 28.778 74.2399 29.646 76.3259 29.646C78.5939 29.646 80.0359 28.526 80.0359 26.762V19.468H78.0479V20.7H77.9499C77.5439 19.86 76.7319 19.356 75.7099 19.356C73.7779 19.356 72.6159 20.84 72.6159 23.052ZM74.6599 23.066V23.052C74.6599 21.806 75.2759 20.966 76.3539 20.966C77.4179 20.966 78.0759 21.806 78.0759 23.052V23.066C78.0759 24.298 77.4319 25.138 76.3539 25.138C75.2619 25.138 74.6599 24.298 74.6599 23.066ZM82.1147 16.598V27H84.1167V16.598H82.1147ZM89.4916 27.154C91.6896 27.154 92.6556 25.88 92.8936 24.942L92.9076 24.872H91.0456L91.0316 24.914C90.8916 25.208 90.4016 25.67 89.5336 25.67C88.4696 25.67 87.8116 24.942 87.7836 23.71H92.9636V23.094C92.9636 20.812 91.6056 19.314 89.4076 19.314C87.2096 19.314 85.8096 20.84 85.8096 23.234V23.248C85.8096 25.656 87.1956 27.154 89.4916 27.154ZM87.8116 22.464C87.9236 21.4 88.5676 20.812 89.4356 20.812C90.3036 20.812 90.9336 21.372 91.0456 22.464H87.8116ZM102.53 17.13H98.4555V27H100.528V23.892H102.53C104.602 23.892 106.002 22.548 106.002 20.518V20.504C106.002 18.474 104.602 17.13 102.53 17.13ZM100.528 22.282V18.768H102.026C103.202 18.768 103.902 19.384 103.902 20.518V20.532C103.902 21.652 103.202 22.282 102.026 22.282H100.528ZM107.763 16.598V27H109.765V16.598H107.763ZM113.88 27.112C114.86 27.112 115.658 26.692 116.036 26.006H116.162V27H118.136V21.862C118.136 20.252 117.002 19.314 115 19.314C113.11 19.314 111.864 20.182 111.71 21.498V21.568H113.544L113.558 21.54C113.726 21.092 114.174 20.84 114.902 20.84C115.714 20.84 116.162 21.204 116.162 21.862V22.478L114.342 22.59C112.466 22.702 111.43 23.486 111.43 24.844V24.858C111.43 26.23 112.438 27.112 113.88 27.112ZM113.376 24.732V24.718C113.376 24.172 113.782 23.85 114.65 23.794L116.162 23.71V24.256C116.162 25.054 115.476 25.656 114.552 25.656C113.852 25.656 113.376 25.306 113.376 24.732ZM121.662 19.468H119.464L122.11 27L122.04 27.294C121.9 27.882 121.494 28.148 120.78 28.148C120.598 28.148 120.402 28.148 120.262 28.134V29.632C120.5 29.646 120.752 29.66 120.976 29.66C122.838 29.66 123.832 28.988 124.504 26.986L127.066 19.468H124.952L123.384 25.18H123.244L121.662 19.468Z" fill="#212124"/>
<path fill-rule="evenodd" clip-rule="evenodd" d="M20.5227 32C20.2061 31.9138 20 31.596 20 31.1044V14.8742C20 14.4188 20.1745 14.1117 20.4511 14L28.3418 23.0448L20.5227 32ZM21.6089 31.6555L31.1069 26.2143L28.7935 23.5626L21.6089 31.6555ZM31.1723 19.8032L21.8067 14.4366L28.8072 22.5119L31.1723 19.8032ZM31.8077 20.1673L35.4766 22.2696C36.1713 22.6677 36.1776 23.3093 35.4766 23.7109L31.7149 25.866L29.2613 23.0357L31.8077 20.1673Z" fill="#212124"/>
</g>
<defs>
<clipPath id="clip0_555_30">
<rect width="147" height="44" fill="white"/>
</clipPath>
</defs>
</svg>
