<svg width="100" height="28" viewBox="0 0 100 28" fill="none" xmlns="http://www.w3.org/2000/svg">
<g clip-path="url(#clip0_554_2)">
<path d="M10.6241 5.1897C4.76013 5.1897 0 9.94831 0 15.8104C0 18.2759 0.845096 20.5345 2.24209 22.3276C2.34557 22.4655 2.4663 22.6035 2.56978 22.7414C2.74225 22.9311 2.89747 23.1207 3.08719 23.3104L3.10443 23.3276C5.13956 25.4828 7.70934 27.1207 10.6068 28C13.5043 27.1207 16.0741 25.4828 18.1092 23.3276L18.1264 23.3104C18.2989 23.1207 18.4714 22.9311 18.6439 22.7414C18.7646 22.6035 18.8681 22.4655 18.9715 22.3276C20.3685 20.5345 21.2136 18.2759 21.2136 15.8104C21.2309 9.93107 16.488 5.1897 10.6241 5.1897ZM10.6241 19.8621C8.38197 19.8621 6.57105 18.0518 6.57105 15.8104C6.57105 13.569 8.38197 11.7587 10.6241 11.7587C12.8662 11.7587 14.6771 13.569 14.6771 15.8104C14.6771 18.0518 12.8662 19.8621 10.6241 19.8621Z" fill="#FF7E36"/>
<path d="M14.0738 4.96552C14.7809 4.81035 15.2983 4.18965 15.2983 3.44827C15.2983 2.58621 14.5912 1.87931 13.7288 1.87931C13.4874 1.87931 13.2632 1.93104 13.0562 2.03449C12.832 0.879318 11.8317 0 10.6071 0C9.38264 0 8.38232 0.879318 8.15812 2.03449C7.95115 1.93104 7.72694 1.87931 7.48549 1.87931C6.62315 1.87931 5.91602 2.58621 5.91602 3.44827C5.91602 4.18965 6.45068 4.81035 7.14055 4.96552C8.2271 4.58621 9.38264 4.37931 10.5899 4.37931C11.7972 4.37931 12.9872 4.58621 14.0738 4.96552Z" fill="#00B493"/>
<path d="M28.8195 15.9481H35.3215C36.1321 15.9481 36.7703 15.4654 36.7703 14.4654C36.7703 13.4654 36.1321 12.9826 35.3215 12.9826H29.6646C29.3714 12.9826 29.1989 12.8102 29.1989 12.5344V9.98264C29.1989 9.70678 29.3714 9.53437 29.6646 9.53437H35.3215C36.1321 9.53437 36.7703 9.0516 36.7703 8.0516C36.7703 7.0516 36.1321 6.56885 35.3215 6.56885H28.8195C26.6119 6.56885 25.5771 7.5516 25.5771 9.39643V13.1378C25.5771 14.9826 26.6119 15.9481 28.8195 15.9481Z" fill="#FF7E36"/>
<path d="M36.9592 17.1379H30.5606C27.6804 17.1379 25.7832 18.7241 25.7832 21.0517C25.7832 23.3276 27.6804 24.9138 30.5606 24.9138H36.9592C39.8394 24.9138 41.7538 23.3276 41.7538 21.0517C41.7538 18.7414 39.8394 17.1379 36.9592 17.1379ZM36.9592 21.9138H30.5606C29.8535 21.9138 29.4741 21.5345 29.4741 21.0517C29.4741 20.5345 29.8535 20.1379 30.5606 20.1379H36.9592C37.6663 20.1379 38.063 20.5345 38.063 21.0517C38.063 21.5345 37.6491 21.9138 36.9592 21.9138Z" fill="#FF7E36"/>
<path d="M42.3754 9.60339H41.3577V7.65512C41.3577 6.81029 40.6162 6.17236 39.5469 6.17236C38.4776 6.17236 37.7188 6.81029 37.7188 7.65512V15.2068C37.7188 16.0517 38.4776 16.6896 39.5469 16.6896C40.6162 16.6896 41.3577 16.0517 41.3577 15.2068V13.1551H42.3754C43.2032 13.1551 43.8586 12.431 43.8586 11.3965C43.8586 10.3965 43.2032 9.60339 42.3754 9.60339Z" fill="#FF7E36"/>
<path d="M60.5186 17.6206H45.669C44.8067 17.6206 44.0996 17.0516 44.0996 15.9999C44.0996 15.0171 44.8067 14.4137 45.669 14.4137H60.5186C61.3809 14.4137 62.088 15.0344 62.088 15.9999C62.088 17.0344 61.3809 17.6206 60.5186 17.6206ZM57.4659 12.3964V10.4654C57.4659 10.1206 57.2761 9.93092 56.983 9.93092H46.6866C45.7897 9.93092 45.0309 9.36194 45.0309 8.27574C45.0309 7.24125 45.7897 6.56885 46.6866 6.56885H57.7763C59.9839 6.56885 61.1049 7.70678 61.1049 9.72402V12.3964C61.1049 13.2413 60.3633 13.8792 59.294 13.8792C58.2247 13.8792 57.4659 13.2413 57.4659 12.3964ZM48.7562 19.7068V20.9826C48.7562 21.2413 48.9459 21.4137 49.2391 21.4137H59.8287C60.7255 21.4137 61.4844 21.9999 61.4844 23.0688C61.4844 24.1033 60.7255 24.724 59.8287 24.724H48.463C46.2727 24.724 45.0999 23.793 45.0999 21.8102V19.7068C45.0999 18.8619 45.8415 18.224 46.9108 18.224C47.9801 18.224 48.7562 18.8619 48.7562 19.7068Z" fill="#FF7E36"/>
<path d="M63.9346 21.362V9.12063C63.9346 7.44822 64.7797 6.56891 66.5217 6.56891H71.2645C73.0065 6.56891 73.8516 7.43098 73.8516 9.12063V21.362C73.8516 23.0344 73.0065 23.9137 71.2645 23.9137H66.5217C64.797 23.9137 63.9346 23.0517 63.9346 21.362ZM70.4367 20.2068V10.293C70.4367 10.0517 70.316 9.91373 70.0917 9.91373H67.7117C67.5047 9.91373 67.3667 10.0689 67.3667 10.293V20.2068C67.3667 20.4482 67.4875 20.5861 67.7117 20.5861H70.0917C70.316 20.5861 70.4367 20.431 70.4367 20.2068ZM76.0937 23.3448V7.75856C76.0937 6.86201 76.8525 6.17236 77.9218 6.17236C78.9911 6.17236 79.7327 6.87925 79.7327 7.75856V12.862H80.7503C81.5782 12.862 82.2335 13.6551 82.2335 14.6379C82.2335 15.7068 81.5782 16.4482 80.7503 16.4482H79.7327V23.3448C79.7327 24.2413 78.9911 24.931 77.9218 24.931C76.8525 24.931 76.0937 24.2413 76.0937 23.3448Z" fill="#FF7E36"/>
<path d="M91.5294 10.4136H92.271V7.60331C92.271 6.79296 92.9264 6.24124 93.9267 6.24124C94.927 6.24124 95.5479 6.79296 95.5479 7.60331V15.9826C95.5479 16.793 94.927 17.3447 93.9267 17.3447C92.9264 17.3447 92.271 16.793 92.271 15.9826V13.5171H91.5294C91.1327 13.5171 90.7705 13.3274 90.5291 12.9654C89.5288 15.1723 87.7696 16.9481 85.3205 18.0343C84.5272 18.3792 83.6821 18.155 83.2336 17.4136C82.7852 16.6723 83.0784 15.7067 83.7683 15.4136C84.8721 14.9309 85.7862 14.2757 86.4933 13.4309H84.7169C84.0442 13.4309 83.4406 13.0343 83.4406 12.1378C83.4406 11.3102 84.027 10.8447 84.7169 10.8447H87.8386C87.9248 10.5343 88.011 10.1895 88.0455 9.82744C88.08 9.55158 87.942 9.36193 87.6833 9.36193H84.8204C84.0098 9.36193 83.4406 8.89641 83.4406 7.96537C83.4406 7.06882 84.0098 6.53434 84.8204 6.53434H88.3042C90.6153 6.53434 91.6846 7.63779 91.3397 10.1205C91.3224 10.2068 91.3224 10.3102 91.3052 10.3964C91.3742 10.4137 91.4431 10.4136 91.5294 10.4136ZM98.0314 24.6033C95.8239 24.1378 93.1851 22.9309 91.4776 21.5516C89.8909 23.1205 87.7696 24.2757 85.5275 24.7067C84.7686 24.8619 83.8718 24.4998 83.5958 23.5688C83.3371 22.6723 83.7855 21.8619 84.5961 21.655C87.0452 21.0171 89.0803 19.6033 90.0979 17.7067C90.4083 17.1378 91.2707 16.7585 92.2365 17.0516C93.2541 17.3619 93.668 18.3274 93.3575 18.9998L93.3403 19.0343C94.7545 20.2067 96.8587 21.1205 98.9283 21.5688C99.7216 21.7412 100.187 22.5516 99.9286 23.4654C99.6699 24.3792 98.8076 24.7585 98.0314 24.6033ZM96.3412 16.5688V7.5171C96.3412 6.70676 97.0139 6.15503 98.0487 6.15503C99.0663 6.15503 99.7216 6.70676 99.7216 7.5171V16.5688C99.7216 17.3792 99.0663 17.9309 98.0487 17.9309C97.0311 17.9309 96.3412 17.3792 96.3412 16.5688Z" fill="#FF7E36"/>
</g>
<defs>
<clipPath id="clip0_554_2">
<rect width="100" height="28" fill="white"/>
</clipPath>
</defs>
</svg>
